<svg width="16" height="16" viewBox="0 0 16 16" fill="none" xmlns="http://www.w3.org/2000/svg">
<rect width="16" height="16" rx="5" fill="#E7E7EE"/>
<path d="M6.89712 13.628C8.97712 13.628 10.3531 12.188 10.3531 10.22C10.3531 9.692 10.1771 9.1 9.69712 8.524L7.66512 6.14C7.37712 5.804 7.26512 5.452 7.26512 5.212C7.26512 4.364 7.90512 3.996 8.54512 3.996C9.42512 3.996 9.82512 4.7 9.58512 5.612H11.4731C11.8091 3.74 10.5931 2.172 8.78512 2.172C6.84912 2.172 5.40912 3.5 5.40912 5.452C5.40912 6.204 5.82512 7.052 6.49712 7.836L8.09712 9.676C8.41712 10.044 8.46512 10.364 8.46512 10.572C8.46512 11.436 7.80912 11.804 7.20112 11.804C6.44912 11.804 5.98512 11.148 6.30512 10.188H4.46512C3.92112 12.012 5.12112 13.628 6.89712 13.628Z" fill="#232325"/>
</svg>
