<svg
      width= "175"
      height="38"
      viewBox="0 0 78 18"
      fill="none"
      xmlns="http://www.w3.org/2000/svg"
    >
      <g>
        <path
          d="M0.200518 12.4H2.9305C2.4505 13.82 3.14058 14.79 4.26058 14.79C4.5068 14.8056 4.75366 14.7693 4.98494 14.6834C5.21622 14.5975 5.42677 14.464 5.60311 14.2914C5.77944 14.1188 5.91751 13.9112 6.00838 13.6818C6.09925 13.4524 6.14076 13.2065 6.13045 12.96C6.11878 12.4686 5.92675 11.9987 5.59065 11.64L3.21053 8.89998C2.28659 7.94164 1.71858 6.69595 1.60066 5.36999C1.58318 4.71458 1.70151 4.06267 1.94832 3.45525C2.19513 2.84784 2.56507 2.29809 3.03475 1.84063C3.50442 1.38316 4.06362 1.02787 4.67732 0.79714C5.29103 0.566415 5.94594 0.46525 6.60066 0.49999C7.22559 0.498315 7.84256 0.639157 8.40486 0.911825C8.96716 1.18449 9.45987 1.58181 9.84554 2.07354C10.2312 2.56526 10.4996 3.13846 10.6304 3.74953C10.7613 4.36061 10.7512 4.99347 10.6007 5.6H7.80062C8.15062 4.25 7.56057 3.20998 6.25057 3.20998C6.00419 3.18866 5.75601 3.21981 5.52254 3.30135C5.28907 3.38289 5.0756 3.51299 4.89607 3.68307C4.71655 3.85314 4.57507 4.05932 4.48104 4.28805C4.387 4.51677 4.34268 4.76283 4.35066 5.01C4.38635 5.52523 4.59806 6.0125 4.95052 6.39001L7.95052 9.92998C8.57691 10.6179 8.93225 11.5098 8.95052 12.44C8.97798 13.1178 8.86361 13.7939 8.61458 14.4249C8.36555 15.0559 7.98744 15.628 7.50447 16.1043C7.0215 16.5807 6.44427 16.9509 5.80989 17.1913C5.17552 17.4316 4.49802 17.5368 3.82063 17.5C3.20476 17.5104 2.59561 17.3704 2.04598 17.0924C1.49634 16.8143 1.02262 16.4065 0.666094 15.9042C0.309564 15.4019 0.0809655 14.8203 -0.000165958 14.2097C-0.0812974 13.5991 -0.0124754 12.978 0.200518 12.4Z"
          fill= "#ff00ff"
        />
        <path
          d="M11.14 12.82L13.71 0.690002H16.44L13.8302 12.99C13.7755 13.2089 13.7726 13.4376 13.8219 13.6578C13.8711 13.8781 13.9711 14.0838 14.1138 14.2585C14.2566 14.4333 14.4382 14.5724 14.6441 14.6647C14.8501 14.7569 15.0747 14.7998 15.3001 14.79C15.7911 14.8104 16.2713 14.6428 16.6429 14.3214C17.0145 13.9999 17.2496 13.5488 17.3001 13.06L19.94 0.690002H22.67L20.0101 13.06C19.8321 14.2934 19.2153 15.4212 18.273 16.2367C17.3308 17.0522 16.1261 17.5008 14.88 17.5C14.2987 17.5187 13.7211 17.4017 13.1929 17.1581C12.6648 16.9145 12.201 16.5511 11.838 16.0968C11.4749 15.6424 11.2228 15.1097 11.1016 14.5409C10.9805 13.9721 10.9935 13.3828 11.14 12.82Z"
          fill= "#ff00ff"
        />
        <path
          d="M22.1602 17.31L25.7002 0.690002H29.2402C30.3659 0.718737 31.4355 1.18686 32.2205 1.9942C33.0054 2.80155 33.4432 3.884 33.4402 5.01001C33.4109 5.83375 33.1679 6.63568 32.7349 7.33701C32.3018 8.03833 31.6936 8.61489 30.9702 9.01001C31.6571 9.85521 32.0126 10.9217 31.9702 12.01C31.9702 14.93 29.6901 17.26 26.1501 17.26L22.1602 17.31ZM26.6204 14.6C26.962 14.6266 27.3054 14.5793 27.6272 14.4615C27.949 14.3437 28.2416 14.158 28.4854 13.9171C28.7291 13.6761 28.9182 13.3856 29.0398 13.0652C29.1614 12.7448 29.2127 12.402 29.1902 12.06C29.2212 11.825 29.1989 11.586 29.125 11.3608C29.0511 11.1355 28.9274 10.9298 28.7632 10.7589C28.599 10.5879 28.3984 10.4561 28.1763 10.3732C27.9542 10.2903 27.7163 10.2585 27.4802 10.28H26.3403L25.4102 14.6H26.6204ZM28.2202 7.73999C28.8562 7.7428 29.4679 7.49622 29.9241 7.05313C30.3803 6.61004 30.6445 6.00575 30.6602 5.37C30.6911 5.11103 30.6651 4.84844 30.584 4.60059C30.5028 4.35273 30.3686 4.12559 30.1904 3.93509C30.0123 3.74458 29.7946 3.59529 29.5527 3.49768C29.3109 3.40007 29.0507 3.3565 28.7903 3.37H27.7903L26.8901 7.70999L28.2202 7.73999Z"
          fill= "#ff00ff"
        />
        <path
          d="M33.6504 17.31L37.1904 0.690002H39.5005L41.1106 5.98001L45.1106 0.690002H47.7004L44.1404 17.31H41.4304L43.7805 6.31L40.2405 10.92L38.7004 6.29001L36.3506 17.29L33.6504 17.31Z"
          fill= "#ff00ff"
        />
        <path
          d="M59.7 0.690002L59.1299 3.39999H53.1899L52.27 7.64999H57.1299L56.5601 10.35H51.7L50.77 14.6H56.77L56.2 17.31H47.5L51.04 0.690002H59.7Z"
          fill= "#ff00ff"
        />
        <path
          d="M61.1497 17.31L64.0898 3.39999H61.0898L61.6597 0.690002H70.3997L69.8298 3.39999H66.8298L63.8298 17.31H61.1497Z"
          fill= "#ff00ff"
        />
        <path
          d="M67.0801 17.31L74.3899 0.690002H77.3899V17.31H74.6599V14.48H71.24L70.05 17.31H67.0801ZM74.6101 5.89001L72.3799 11.78H74.6101V5.89001Z"
          fill= "#ff00ff"
        />
      </g>
      <defs>
        <clipPath>
          <rect
            width="77.34"
            height="17"
            fill= "#ff00ff"
            transform="translate(0 0.5)"
          />
        </clipPath>
      </defs>
    </svg>